Coordinates
version=1
nRows=7
nColumns=33
inDegrees=yes

Units are S.I. units (second, meters, Newtons, ...)
Angles are in degrees.

endheader
time	ground_thorax_rot_x	ground_thorax_rot_y	ground_thorax_rot_z	ground_thorax_tx	ground_thorax_ty	ground_thorax_tz	clav_prot_r	clav_elev_r	scapula_abduction_r	scapula_elevation_r	scapula_upward_rot_r	scapula_winging_r	shoulder_elv_r	plane_of_elev_r	axial_rot_r	elbow_flexion_r	pro_sup_r	wrist_flex_r	wrist_dev_r	clav_prot_l	clav_elev_l	scapula_abduction_l	scapula_elevation_l	scapula_upward_rot_l	scapula_winging_l	shoulder_elv_l	plane_of_elev_l	axial_rot_l	elbow_flexion_l	pro_sup_l	wrist_flex_l	wrist_dev_l
      9.21000000	    -38.47182933	     -7.63785287	      8.34217147	    -83.87030995	    849.99760277	    -46.59545180	     21.46111385	    -45.00000000	     35.23721924	    -45.00000000	    -36.20640917	    262.47161424	  -1905.88866125	    157.35841151	     13.98494592	   1798.55882689	    164.96255512	     17.67267087	     13.78740373	      1.83715576	     28.67806298	    -27.68548206	    -45.00000000	    -45.00000000	   4035.95720769	  -7100.53959680	     19.98299601	   -179.99999979	   1785.43278276	   -429.53193622	     -2.52529484	    -12.76885794
      9.22000000	    -38.40952513	     -7.89896215	      8.73642931	    -83.31619994	    849.72189643	    -46.71959694	     20.99037326	    -45.00000000	     35.04155559	    -45.00000000	    -36.83693138	    262.21486410	  -1905.88661201	    157.07549410	     14.37176664	   1798.44228875	    164.72418648	     17.54897220	     13.55922363	      1.93804025	     29.15160030	    -27.95584351	    -45.00000000	    -45.00000000	   4036.08389097	  -7100.84699994	     19.90163486	   -179.99999979	   1785.40138168	   -429.33221071	     -2.41841093	    -12.70755328
      9.23000000	    -38.34854427	     -8.10363403	      8.74833373	    -82.68914191	    849.44078116	    -46.85410173	     21.24215118	    -45.00000000	     35.21898182	    -45.00000000	    -36.49539351	    262.48234823	  -1905.80528313	    157.31782992	     14.02634358	   1798.51692455	    164.43125130	     17.67883038	     13.66199093	      1.78096284	     28.76192649	    -27.82080226	    -45.00000000	    -45.00000000	   4035.97634634	  -7100.75511646	     19.89857198	   -179.99999979	   1785.46155978	   -429.17555679	     -2.48519820	    -12.70900968
      9.24000000	    -38.34555116	     -8.14162396	      8.80469216	    -81.98530288	    849.15484655	    -46.99954009	     21.22402306	    -45.00000000	     35.18575959	    -45.00000000	    -36.59225412	    262.17113324	  -1905.97732410	    156.97774392	     14.01370687	   1798.39513124	    164.25305310	     17.45555561	     13.57103698	      1.90480789	     29.23125795	    -28.00615410	    -45.00000000	    -45.00000000	   4036.05030985	  -7100.82679876	     19.90302279	   -179.99999979	   1785.32517086	   -428.96475278	     -2.28914108	    -12.48294480
      9.25000000	    -38.33069028	     -8.23838807	      8.76845303	    -81.20248860	    848.86597084	    -47.15484633	     21.25814081	    -45.00000000	     35.21755688	    -45.00000000	    -36.39120969	    262.41608709	  -1905.90428733	    157.15295048	     13.88330234	   1798.36359840	    164.02531793	     17.61409982	     13.74650231	      1.71369274	     28.85866290	    -27.87621852	    -45.00000000	    -45.00000000	   4035.97780379	  -7100.62987643	     19.99071285	   -179.99999979	   1785.22560337	   -428.65953891	     -2.46132736	    -12.54142672
      9.26000000	    -38.26553425	     -8.55371573	      8.93725086	    -80.34265942	    848.57704285	    -47.31835050	     21.33355718	    -45.00000000	     35.49890971	    -45.00000000	    -36.34283199	    262.26356263	  -1905.98203554	    157.07629813	     13.77074177	   1798.30765532	    163.83507361	     17.52935131	     13.69708806	      1.74643167	     29.04066746	    -27.80948528	    -45.00000000	    -45.00000000	   4035.98840079	  -7100.66813681	     19.97762878	   -179.99999979	   1785.14981651	   -428.29341879	     -2.34627413	    -12.39950448
      9.27000000	    -38.23488316	     -8.77579988	      9.01925773	    -79.40813074	    848.29019143	    -47.48839317	     21.41695037	    -45.00000000	     35.60146316	    -45.00000000	    -36.22750314	    262.38198789	  -1905.94246938	    157.14710404	     13.64883395	   1798.30073620	    163.64853575	     17.58875848	     13.74077036	      1.59043949	     28.89104052	    -27.71701037	    -45.00000000	    -45.00000000	   4035.95689112	  -7100.57260208	     20.00996922	   -179.99999979	   1785.08292242	   -427.89134747	     -2.38927192	    -12.34304992
